PathFileType	4	(X/Y/Z)	C:/Users/beibeiliu/ov580/test_trc/capture2\sequence.29_training_dense_left.trc
DataRate	CameraRate	NumFrames	NumMarkers	Units	OrigDataRate	OrigDataStartFrame	OrigNumFrames
120	120	16	19	mm	120	43	340
Frame#	Time	ThumbCMC			ThumbMCP			ThumbIP			ThumbTip			IndexMCP			IndexPIP			IndexTip			MiddleMCP			MiddlePIP			MiddleTip			RingMCP			RingPIP			RingTip			PinkyMCP			PinkyPIP			PinkyTip			BackHand1			BackHand2			BackHand3	
		X0	Y0	Z0	X1	Y1	Z1	X2	Y2	Z2	X3	Y3	Z3	X4	Y4	Z4	X5	Y5	Z5	X6	Y6	Z6	X7	Y7	Z7	X8	Y8	Z8	X9	Y9	Z9	X10	Y10	Z10	X11	Y11	Z11	X12	Y12	Z12	X13	Y13	Z13	X14	Y14	Z14	X15	Y15	Z15	X16	Y16	Z16	X17	Y17	Z17	X18	Y18	Z18	
42	0.35	-94.0045	54.2252	28.9868	-73.9119	48.2344	15.9336	-58.443	51.4699	-7.8271	-43.1353	52.1618	-20.5101	-85.7178	60.9865	-43.6099	-89.1969	35.1349	-62.5234	-101.92	6.49897	-64.4507	-108.957	76.7968	-56.9176	-109.451	62.3501	-81.8639	-109.123	31.6638	-98.8189	-132.218	82.717	-51.998	-132.811	73.0003	-82.0295	-127.671	50.2999	-100.635	-154.571	81.5411	-44.2201	-154.152	77.8008	-70.9918	-151.708	64.9484	-95.6883	-138.41	87.8638	2.04222	-144.452	84.2837	29.5194	-111.812	81.2284	21.3366	
43	0.358333	-93.5914	54.5315	30.1397	-77.6404	49.0686	12.5154	-58.9169	50.0808	-4.25233	-40.2852	51.5195	-22.4815	-91.0279	60.0245	-47.5385	-87.3751	37.179	-62.4277	-101.089	10.3468	-67.4364	-111.859	77.4494	-54.3919	-106.462	62.7215	-83.7504	-110.861	39.2909	-101.975	-130.8	83.1299	-55.8964	-131.818	77.4994	-79.9655	-131.99	58.0113	-105.953	-151.763	82.0594	-46.7518	-156.374	79.854	-70.032	-156.696	74.2409	-94.453	-136.91	88.5505	-1.91851	-147.899	86.1852	27.7538	-110.868	81.1845	20.9221	
44	0.366667	-98.0634	54.3704	29.7912	-75.075	46.3845	12.7331	-54.7382	48.9127	-8.93581	-44.2148	48.947	-24.8857	-88.915	60.0149	-45.5394	-89.1516	38.7545	-63.8816	-102.173	9.25763	-70.1328	-108.994	77.4797	-53.4401	-109.445	67.0086	-80.8386	-108.941	45.019	-106.123	-132.657	83.6673	-57.1944	-132.892	79.6041	-79.8037	-133.256	64.1999	-107.936	-153.916	80.0875	-43.3024	-159.411	79.5337	-71.6747	-158.561	77.9184	-97.3986	-138.559	87.6608	-1.03879	-142.705	85.5404	26.8501	-108.931	83.0344	16.8251	
45	0.375	-95.658	52.9104	26.1872	-77.0614	42.1927	7.18717	-62.5403	39.5841	-10.3401	-48.4014	37.8681	-25.5283	-88.3352	61.3636	-47.7623	-87.2571	38.992	-67.0638	-97.2154	13.5261	-76.5923	-109.098	78.3209	-57.7189	-110.851	68.4206	-86.2589	-108.955	53.8685	-109.211	-129.762	83.8286	-54.5484	-132.627	80.85	-79.2379	-133.012	69.7305	-110.754	-157.062	79.9747	-48.6154	-164.199	78.0567	-68.8385	-166.88	81.351	-91.2514	-142.738	88.1845	-2.20904	-143.724	87.1416	28.0332	-111.61	82.3085	17.3752	
46	0.383333	-94.2105	51.758	21.2452	-79.9505	33.513	5.25059	-67.9142	28.1153	-15.8109	-59.0238	23.5734	-38.6929	-88.0496	66.0254	-48.3443	-85.9083	50.1447	-71.1308	-95.1106	25.2305	-87.3306	-108.611	82.3822	-57.5325	-107.471	76.3843	-87.8315	-108.892	65.2615	-112.161	-137.822	84.6383	-54.6556	-134.016	83.5082	-80.5302	-137.956	78.3364	-108.027	-160.897	77.7903	-50.2445	-164.912	75.5472	-65.6206	-173.443	78.024	-88.4039	-139.798	87.708	-4.999	-146.945	85.7498	25.9026	-111.729	82.0683	14.927	
47	0.391667	-95.7677	48.3456	19.9346	-89.6719	28.7323	-0.773889	-72.5946	17.1619	-22.4124	-67.0873	9.7601	-41.2242	-87.5235	70.0893	-51.7965	-81.6225	58.35	-71.8683	-83.4249	38.4228	-94.8881	-113.102	84.5938	-54.9044	-112.306	83.6637	-85.5286	-107.832	76.5198	-113.868	-137.954	84.0446	-58.9901	-136.193	83.6837	-80.7586	-138.698	83.0229	-109.108	-161.188	73.6191	-48.3941	-170.259	70.487	-68.5786	-178.802	75.3548	-90.4404	-143.905	84.7351	-3.83246	-145.567	86.8146	21.8459	-113.09	83.9324	13.3164	
48	0.4	-99.452	48.4582	20.7914	-94.0708	25.1873	-1.26375	-79.5539	11.3658	-24.1276	-81.7378	6.01612	-48.041	-88.7089	74.0659	-49.462	-82.152	65.9482	-74.3917	-79.9165	53.3656	-98.159	-116.654	85.5473	-55.4891	-109.68	86.9599	-85.1313	-106.529	84.6458	-114.469	-136.704	81.5501	-55.0135	-141.646	84.6582	-83.1915	-135.76	84.1233	-110.94	-166.404	70.5086	-51.7793	-171.878	67.6425	-71.7159	-180.346	72.2907	-87.1235	-147.408	85.2549	-5.15871	-149.884	84.8019	19.38	-119.768	84.3965	12.7432	
49	0.408333	-97.057	47.1852	16.576	-95.6552	24.5768	-2.38942	-86.8219	10.8093	-25.4938	-87.9767	3.04749	-50.4781	-89.458	75.9736	-51.4431	-79.5627	69.2018	-75.1093	-75.4374	62.6434	-97.1624	-116.829	87.5951	-56.5425	-114.678	89.5194	-83.6866	-114.355	91.6537	-114.804	-140.766	82.9771	-56.865	-140.354	84.8135	-83.5197	-142.023	86.3346	-108.512	-162.347	68.5902	-47.1043	-169.623	64.2537	-69.2363	-184.809	69.8314	-88.7557	-147.012	85.736	-8.60509	-149.251	83.1183	20.9288	-118.85	84.2776	10.8382	
50	0.416667	-100.26	47.9977	21.0512	-95.1142	23.2938	-3.35255	-90.3993	10.1978	-25.4649	-91.2589	1.43997	-50.382	-90.3717	76.5208	-45.3531	-83.1475	74.8536	-74.5026	-74.9761	71.0047	-94.6754	-119.257	87.2467	-55.4388	-116.949	92.2063	-82.7457	-116.874	95.7698	-108.826	-140.864	81.6516	-54.4454	-144.415	84.1771	-83.5787	-142.829	86.1011	-110.376	-166.449	65.9955	-51.2025	-174.862	61.2528	-67.5892	-181.763	64.1199	-88.1589	-148.698	84.3818	-6.16486	-153.793	85.0034	19.8386	-120.697	85.3379	10.5113	
51	0.425	-100.735	48.239	21.2318	-93.6591	21.764	-1.14817	-92.5483	11.0139	-26.1808	-96.2119	3.6084	-54.0748	-92.6858	79.3969	-47.6945	-82.6156	77.4318	-72.0612	-76.6261	76.3486	-97.6982	-120.185	87.9095	-54.2654	-116.118	93.5492	-78.0475	-118.528	100.504	-111.565	-139.979	80.8848	-55.674	-141.985	82.9436	-82.5543	-146.352	83.613	-106.485	-168.91	63.6859	-48.0146	-173.466	55.9937	-71.8592	-178.524	53.0207	-92.5693	-148.268	83.2014	-7.54875	-156.767	82.7035	20.8194	-119.556	86.1901	10.4986	
52	0.433333	-103.571	51.9643	17.3238	-96.9564	26.2698	-0.893864	-89.7539	11.9895	-32.1299	-97.4552	6.18097	-53.5771	-96.4648	81.4527	-47.4704	-85.8947	80.5513	-71.307	-79.2313	79.9474	-97.0724	-123.428	90.72	-57.8428	-118.412	95.1412	-78.6312	-115.941	101.197	-107.93	-146.241	78.6077	-54.8926	-143.655	80.4726	-82.0336	-146.506	80.8608	-108.778	-168.129	60.4067	-49.939	-170.755	49.4931	-72.7541	-178.601	42.1269	-96.0347	-149.303	82.1946	-8.88124	-158.865	84.1772	23.0267	-120.562	87.1513	8.38684	
53	0.441667	-101.569	51.7043	20.045	-94.34	26.4762	-6.10691	-89.0595	12.671	-31.1215	-96.7456	7.59836	-51.5335	-96.3251	83.1621	-46.292	-84.5627	82.8603	-71.0941	-78.0702	84.297	-91.7039	-119.947	91.321	-56.8423	-120.132	97.1257	-81.9414	-120.696	103.274	-107.531	-141.014	79.5505	-57.2317	-145.354	77.7954	-81.4284	-143.793	77.3117	-105.993	-163.434	60.5866	-50.6946	-164.097	46.4173	-71.8389	-167.755	34.4298	-92.563	-153.643	84.8252	-5.03208	-156.671	84.5059	21.6808	-119.691	88.0383	8.74657	
54	0.45	-100.181	52.9137	15.336	-95.5822	28.2858	-4.11388	-88.7107	14.6014	-30.1121	-95.2124	8.73625	-51.4716	-96.776	85.1084	-47.0835	-84.3836	86.8056	-73.3278	-79.3701	88.7747	-91.8675	-126.454	91.3196	-55.2478	-121.815	97.2318	-82.6066	-121.736	104.81	-108.339	-146.321	77.2689	-56.5674	-147.77	74.3817	-85.2525	-143.355	70.1262	-108.19	-162.413	56.7605	-53.0915	-160.538	40.7036	-70.136	-156.047	22.301	-87.2295	-153.298	84.8059	-7.03763	-158.609	81.3027	23.011	-120.909	86.1911	10.3266	
55	0.458333	-102.426	53.8134	16.2966	-93.5103	28.3685	-6.70236	-90.5508	17.4514	-29.7874	-89.9267	8.00036	-54.1796	-99.0213	86.8526	-45.31	-87.3563	88.4006	-70.9668	-80.9464	92.9667	-92.9602	-124.347	92.3513	-54.5483	-121.89	98.7787	-81.6046	-125.806	102.795	-105.504	-142.678	77.5985	-54.9162	-144.89	70.5362	-87.6618	-141.02	61.0582	-108.826	-161.705	55.655	-51.834	-154.851	38.2625	-66.6221	-146.116	9.39968	-78.5352	-150.303	83.7567	-5.73992	-154.358	82.8839	21.671	-122.961	88.9767	13.2741	
56	0.466667	-99.5025	55.1641	14.6069	-90.9838	29.5031	-6.32793	-84.9398	17.3082	-30.6158	-86.6407	9.22172	-51.8278	-96.8345	89.9054	-46.4005	-86.2451	91.7329	-69.2172	-80.6725	96.2362	-90.3531	-125.381	93.6791	-56.5906	-125.572	97.6002	-83.9123	-128.113	101.497	-111.055	-143.044	74.8536	-56.1047	-142.695	62.8901	-87.4747	-133.917	47.1207	-108.249	-158.037	55.4888	-48.5421	-150.607	33.5757	-62.9093	-136.488	4.27932	-63.4786	-154.122	84.4705	-10.605	-158.434	83.0865	23.7463	-120.852	87.7866	9.25017	
57	0.475	-101.333	55.6758	18.2891	-92.5964	32.2406	-3.97041	-88.2366	20.2924	-31.5325	-89.0334	12.6878	-51.8876	-96.8175	90.8738	-48.3259	-90.4716	94.3086	-71.4351	-83.4854	99.5102	-93.8375	-127.544	92.9555	-56.4825	-127.162	95.7015	-80.0869	-127.724	98.1863	-113.411	-141.234	71.8549	-61.6836	-137.86	57.6762	-85.7582	-130.614	36.8401	-99.8537	-157.218	51.5459	-49.3524	-145.957	23.7411	-57.9179	-129.996	2.02927	-47.8762	-154.185	81.5123	-7.79024	-153.866	82.8384	22.5354	-123.658	88.5238	11.4416	
